<?xml version="1.0" standalone="no"?>
<!DOCTYPE svg PUBLIC "-//W3C//DTD SVG 20010904//EN"
 "http://www.w3.org/TR/2001/REC-SVG-20010904/DTD/svg10.dtd">
<svg version="1.0" xmlns="http://www.w3.org/2000/svg"
 width="3754.000000pt" height="1388.000000pt" viewBox="0 0 3754.000000 1388.000000"
 preserveAspectRatio="xMidYMid meet">

<g transform="translate(0.000000,1388.000000) scale(0.100000,-0.100000)"
fill="#000000" stroke="none">
<path d="M835 9490 c-104 -14 -187 -39 -290 -90 -177 -85 -318 -227 -406 -405
-27 -55 -51 -112 -55 -127 l-6 -28 2432 0 2433 0 -7 -667 c-3 -368 -9 -1367
-12 -2222 l-7 -1554 30 21 c118 84 247 291 295 472 l23 85 0 1880 0 1880 -23
85 c-89 327 -346 575 -681 658 -60 15 -236 16 -1866 18 -990 1 -1827 -2 -1860
-6z"/>
<path d="M44 6820 l1 -1845 23 -85 c69 -259 246 -474 485 -589 195 -94 -8 -86
2112 -86 1656 0 1876 2 1920 16 l50 15 3 2146 2 2145 -367 7 c-203 3 -1113 8
-2023 11 -910 3 -1777 8 -1927 11 l-272 6 -4 47 c-2 25 -3 -784 -3 -1799z
m1275 155 c146 -35 286 -142 352 -269 l34 -66 578 0 577 0 0 -1210 0 -1210
-145 0 -145 0 0 1070 0 1070 -426 -2 -426 -3 -18 -54 c-56 -156 -207 -289
-380 -332 -90 -22 -222 -16 -308 14 -333 117 -466 487 -277 771 122 183 360
273 584 221z"/>
<path d="M1118 6630 c-57 -10 -113 -53 -138 -105 -61 -125 31 -266 174 -267
67 -1 118 24 160 76 28 35 31 44 31 111 0 67 -3 76 -31 111 -49 61 -121 88
-196 74z"/>
</g>
</svg>
